<?xml version="1.0" encoding="UTF-8" standalone="no"?>
<svg
   xmlns:dc="http://purl.org/dc/elements/1.1/"
   xmlns:cc="http://creativecommons.org/ns#"
   xmlns:rdf="http://www.w3.org/1999/02/22-rdf-syntax-ns#"
   xmlns:svg="http://www.w3.org/2000/svg"
   xmlns="http://www.w3.org/2000/svg"
   xmlns:sodipodi="http://sodipodi.sourceforge.net/DTD/sodipodi-0.dtd"
   xmlns:inkscape="http://www.inkscape.org/namespaces/inkscape"
   viewBox="0 0 602.43298 338.70752"
   version="1.1"
   id="svg10"
   sodipodi:docname="black-158186.svg"
   inkscape:version="0.92.5 (2060ec1f9f, 2020-04-08)"
   width="602.43298"
   height="338.70752">
  <metadata
     id="metadata16">
    <rdf:RDF>
      <cc:Work
         rdf:about="">
        <dc:format>image/svg+xml</dc:format>
        <dc:type
           rdf:resource="http://purl.org/dc/dcmitype/StillImage" />
        <dc:title></dc:title>
      </cc:Work>
    </rdf:RDF>
  </metadata>
  <defs
     id="defs14" />
  <sodipodi:namedview
     pagecolor="#ffffff"
     bordercolor="#666666"
     borderopacity="1"
     objecttolerance="10"
     gridtolerance="10"
     guidetolerance="10"
     inkscape:pageopacity="0"
     inkscape:pageshadow="2"
     inkscape:window-width="1294"
     inkscape:window-height="768"
     id="namedview12"
     showgrid="false"
     inkscape:zoom="0.834386"
     inkscape:cx="286.10998"
     inkscape:cy="84.709949"
     inkscape:window-x="72"
     inkscape:window-y="0"
     inkscape:window-maximized="1"
     inkscape:current-layer="svg10"
     fit-margin-top="0"
     fit-margin-left="0"
     fit-margin-right="0"
     fit-margin-bottom="0" />
  <path
     d="M 182.00384,1.7915634e-4 C 192.29788,-0.02319084 202.76409,2.2397042 212.99613,6.8504492 c 17.64364,7.9501998 42.95182,32.3147608 60.47266,58.2179268 30.37562,44.907724 46.6725,66.976914 54.95903,74.429154 10.33053,9.29039 11.24956,12.58992 2.12676,7.62581 C 319.35171,141.0276 298.72775,118.8908 278.11755,90.841687 259.14197,65.016186 241.24776,45.600846 244.62859,54.505766 c 1.85778,4.8923 34.48911,51.894504 45.18686,65.086954 5.65072,6.96834 6.63957,9.07692 3.5271,7.52353 -6.1891,-3.08932 -16.42747,-14.09418 -37.23226,-40.024403 -10.01365,-12.48032 -20.1745,-24.341771 -22.57991,-26.357941 -8.40448,-7.04435 -8.71453,-2.17478 -0.61151,9.601291 l 20.06804,29.18736 c 6.54517,9.522963 11.17025,17.314033 10.27726,17.314033 -2.10081,0 -17.93953,-15.54919 -31.24059,-30.670263 -5.74387,-6.52964 -11.42045,-12.51183 -12.61347,-13.29318 -3.98798,-2.61195 -3.52369,2.03116 1.03719,10.3683 2.48361,4.54008 4.05141,8.68806 3.48319,9.21778 -0.56823,0.52973 -5.81772,-4.71384 -11.66581,-11.65347 -11.24437,-13.342541 -19.1062,-18.692281 -24.58672,-16.731091 -4.9423,1.76894 -4.18146,3.87776 5.21465,14.455631 9.87897,11.12155 16.30185,22.624933 18.0984,32.415643 l 1.26184,6.87924 -4.81938,-7.42127 c -6.50168,-10.01062 -11.3508,-10.01062 -9.30933,0 3.87225,18.98885 4.71425,30.03917 3.04062,39.91191 -2.63989,15.57314 -6.20285,17.50152 -6.20285,3.3561 0,-7.46953 -0.8135,-11.18973 -2.34296,-10.71431 -1.28868,0.40057 -5.77214,9.07579 -9.96137,19.27927 -5.06044,12.325 -10.04227,20.8155 -14.84326,25.29266 -3.97492,3.70684 -7.63051,6.36419 -8.12349,5.90429 -0.49299,-0.45991 2.02109,-6.01014 5.58797,-12.33356 3.56687,-6.32342 5.72512,-12.20487 4.79571,-13.07159 -2.34643,-2.18783 -35.76901,10.48119 -44.20034,16.75495 -3.82713,2.84759 -10.34498,11.58164 -14.59156,19.552 -7.83369,14.70289 -8.44118,12.14723 -1.87841,-7.90193 1.87818,-5.73828 2.74682,-11.0562 1.92909,-11.81881 -3.0738,-2.86591 -12.871923,4.81947 -18.007173,14.12496 -5.80822,10.5255 -8.41509,9.41435 -4.41733,-1.88174 1.37718,-3.89141 1.9376,-7.6037 1.24496,-8.24964 -1.80069,-1.67906 -9.41217,5.17663 -11.03236,9.93707 -1.22545,3.60058 -1.57385,3.67754 -3.34298,0.72951 -1.08604,-1.80969 -2.85686,-3.29133 -3.93589,-3.29133 -3.9572,0 -9.04244,13.00148 -9.04244,23.11944 0,18.87104 11.57802,28.30794 34.74742,28.3198 23.279243,0.0122 35.346843,-6.92115 70.890153,-40.73175 32.44614,-30.86472 38.50874,-34.19125 57.81384,-31.72363 20.34209,2.59974 29.12643,14.90105 29.13749,40.80334 0.008,18.75672 -2.27295,24.39421 -15.31453,37.85632 -9.85452,10.17206 -19.0742,14.46938 -44.61253,20.79114 -33.63623,8.32668 -41.57557,14.56642 -18.5359,14.56641 13.07231,1e-5 17.17156,2.96997 6.91402,5.00944 -12.367,2.45924 -29.1331,10.98186 -45.57369,23.16547 -8.85988,6.56612 -19.43685,14.04241 -23.50223,16.61519 -12.95475,8.19765 -14.31078,6.13597 -3.86496,-5.87531 3.9456,-4.53624 12.76327,-16.70781 19.59674,-27.04656 6.83346,-10.33878 17.73634,-23.91825 24.2286,-30.17596 13.42794,-12.94303 19.81184,-15.24871 12.76042,-4.60889 -2.56474,3.87003 -3.61732,7.27019 -2.45613,7.93944 2.7365,1.57694 40.38703,-11.10651 52.31033,-17.62254 22.96511,-12.55101 31.65351,-45.94355 15.80104,-60.72691 -7.8765,-7.34595 -17.37244,-7.41484 -29.28278,-0.21305 -8.96798,5.42201 -51.32889,49.83589 -51.32889,53.81527 0,1.16853 1.48814,2.12377 3.30752,2.12377 6.94156,0 0.19212,3.87172 -19.28423,11.06032 -25.07466,9.25505 -27.05681,11.13795 -17.63215,16.74132 l 7.0846,4.21174 -13.24184,-0.97666 c -10.50663,-0.77495 -16.966543,-2.85505 -31.276083,-10.07001 -9.91849,-5.0013 -18.64743,-9.09336 -19.39571,-9.09336 -1.50118,0 0.0692,12.56421 2.3497,18.79861 1.27537,3.48655 0.92555,3.40653 -2.93417,-0.66814 -4.0416,-4.26658 -14.7206,-32.07208 -18.213262,-47.42181 -1.892198,-8.31534 -5.324347,-7.27048 -8.853253,2.69476 -2.63929,7.45286 -2.726279,7.07615 -1.949357,-8.52405 0.644075,-12.93151 2.12797,-18.94281 7.142052,-28.93511 12.67316,-25.25475 30.49055,-37.22513 60.726083,-40.79652 9.23436,-1.09069 17.32186,-2.47924 17.97337,-3.0868 2.44935,-2.28435 -5.41672,-4.7876 -15.13717,-4.81684 -5.543043,-0.0167 -10.077933,-0.75506 -10.077933,-1.6397 0,-2.93747 12.602733,-12.92349 22.791073,-18.06058 9.97722,-5.03027 14.69586,-11.99095 8.13026,-11.99096 -4.67946,0 -4.15962,-3.40714 0.90541,-5.93497 6.02669,-3.00781 5.25284,-5.926 -1.59125,-5.99974 -5.43968,-0.0587 -5.57106,-0.2492 -1.93923,-2.81578 2.45281,-1.73351 6.57922,-2.34701 11.14045,-1.65675 5.80036,0.87784 7.24342,0.44312 7.24342,-2.18001 0,-1.801763 -2.59385,-4.195823 -5.76364,-5.319673 -4.22169,-1.49683 -5.01003,-2.47771 -2.94772,-3.66631 6.36902,-3.67053 14.14001,1.40686 17.02405,11.123383 1.23143,4.14868 2.81628,5.44756 6.21804,5.09637 7.6596,-0.79083 5.09553,3.36507 -4.45281,7.21843 -8.54591,3.44887 -18.56629,13.21477 -18.56629,18.09468 0,1.23572 4.38867,-0.15067 9.75192,-3.08169 7.03842,-3.84648 11.8215,-5.10468 17.18957,-4.52026 9.3713,1.02105 12.43745,-3.02625 14.0054,-18.48158 1.04893,-10.339453 0.76288,-11.291953 -3.99503,-13.313633 -3.53313,-1.5012 -5.12343,-3.79844 -5.12343,-7.39741 0,-4.30752 -0.7699,-5.03231 -4.40043,-4.14697 -2.77343,0.67633 -5.65287,-0.29463 -7.79242,-2.62489 -2.54483,-2.77175 -4.35419,-3.21723 -7.2282,-1.78288 -2.10833,1.05213 -6.13538,1.37459 -8.94954,0.71588 -2.81416,-0.6587 -5.75424,-0.2356 -6.53392,0.94087 -0.7797,1.17647 -3.69457,2.13911 -6.4782,2.13911 -5.75408,0 -18.34664,9.62221 -14.54087,11.11145 1.33486,0.5223 1.90024,2.82729 1.25678,5.12194 -0.79785,2.845123 -0.38943,3.721503 1.2855,2.756133 5.46245,-3.148573 2.00624,2.80477 -3.90887,6.73266 -4.05069,2.69015 -6.365013,5.95708 -6.365013,8.98427 0,3.82822 -2.09242,5.59747 -10.71309,9.05585 -12.65163,5.07556 -18.49775,13.02811 -14.58648,19.84347 2.26064,3.93923 2.02811,4.11836 -3.64874,2.81578 -3.33491,-0.76517 -8.21908,-2.69159 -10.85498,-4.28163 l -4.79403,-2.89078 4.54402,-5.73214 c 2.49839,-3.15189 6.77606,-6.25239 9.5053,-6.89119 5.9568,-1.39455 10.71561,-8.52842 7.61672,-11.41825 -3.24591,-3.02674 -9.86808,-0.1696 -19.21835,8.29225 -6.69732,6.06083 -9.48117,10.8084 -13.007057,22.17518 C 34.470485,178.66004 33.533433,180.29156 15.00674,197.9609 1.649411,210.69999 -1.796396,213.1925 0.80371001,208.23205 2.691663,204.62959 7.339472,198.39592 11.131657,194.37981 c 17.412354,-18.44053 20.601582,-25.36513 10.881999,-23.63249 -4.850526,0.86474 -4.488023,0.11637 4.0778,-8.42351 9.297514,-9.2697 22.463361,-30.6788 22.463361,-36.52852 0,-5.27253 -8.061183,-3.31811 -12.007048,2.91124 -2.068107,3.2649 -4.436105,5.93667 -5.261935,5.93667 -2.945796,0 -14.559462,-10.29382 -14.559462,-12.90456 0,-1.46236 2.147971,-3.28104 4.773769,-4.0413 9.167774,-2.65472 17.012244,-9.47173 21.277513,-18.490113 2.36373,-4.99702 9.490983,-14.42836 15.838193,-20.95817 12.23813,-12.591171 25.50729,-32.039521 31.44161,-46.087207 5.36195,-12.692307 5.85602,-8.81509 0.8159,6.401995 -2.43267,7.345081 -3.79357,13.937191 -3.02372,14.648231 1.69172,1.56298 8.97253,-6.62488 19.486943,-21.914393 4.28654,-6.234056 8.20378,-10.951134 8.70629,-10.482499 0.5025,0.468634 -2.65033,7.935078 -7.00693,16.593029 -4.3566,8.657953 -7.57387,16.712933 -7.14881,17.902063 0.43071,1.20353 5.94688,-1.23537 12.44285,-5.50203 6.41832,-4.21553 14.04973,-8.351989 16.95817,-9.190513 4.76352,-1.373438 4.99635,-1.1961 2.34972,1.777764 -4.20299,4.723079 -1.81665,5.785989 7.54747,3.361219 11.92127,-3.086879 14.63129,-2.866977 11.26377,0.917 -3.607,4.05321 -0.64215,6.56006 8.5931,7.26617 7.11541,0.54403 7.42006,0.28935 8.04411,-6.70028 0.51148,-5.729382 -0.65272,-8.624086 -5.50351,-13.686907 -5.23083,-5.459108 -7.596,-6.420744 -15.79935,-6.420744 -5.30693,0 -12.64833,1.159257 -16.31458,2.575456 -11.21807,4.333776 -10.31118,0.212678 2.38014,-10.825097 C 148.1688,6.4287092 164.84712,0.03912916 182.00384,1.7915634e-4 Z M 65.784937,86.244727 c -1.79003,0.10409 -4.35462,1.70609 -5.30079,4.00551 -0.62278,1.5135 -0.3718,3.19042 0.55744,3.72597 2.17285,1.25222 6.61333,-2.86188 6.61333,-6.12757 0,-1.18946 -0.79595,-1.66636 -1.86998,-1.60391 z m -6.08798,20.801383 c -5.16604,0.0876 -11.13877,4.68062 -11.13877,8.56496 0,4.36963 6.96083,4.14088 11.34147,-0.37327 4.56205,-4.70093 4.47304,-8.27085 -0.2027,-8.19169 z"
     id="path2"
     inkscape:connector-curvature="0"
     style="stroke-width:0.86877835" />
  <text
     xml:space="preserve"
     style="font-style:normal;font-variant:normal;font-weight:normal;font-stretch:normal;font-size:40px;line-height:1;font-family:Tangerine;-inkscape-font-specification:Tangerine;letter-spacing:0px;word-spacing:0px;fill:#000000;fill-opacity:1;stroke:none"
     x="251.66023"
     y="138.07587"
     id="text831"><tspan
       sodipodi:role="line"
       x="251.66023"
       y="138.07587"
       id="tspan833"
       style="font-style:normal;font-variant:normal;font-weight:bold;font-stretch:normal;font-size:146.66667175px;line-height:1;font-family:Tangerine;-inkscape-font-specification:'Tangerine Bold'">    Lite</tspan><tspan
       sodipodi:role="line"
       x="251.66023"
       y="284.74255"
       style="font-style:normal;font-variant:normal;font-weight:bold;font-stretch:normal;font-size:146.66667175px;line-height:1;font-family:Tangerine;-inkscape-font-specification:'Tangerine Bold'"
       id="tspan837">Dragons</tspan></text>
  <text
     id="text843"
     y="138.07587"
     x="253.66023"
     style="font-style:normal;font-variant:normal;font-weight:normal;font-stretch:normal;font-size:40px;line-height:1;font-family:Tangerine;-inkscape-font-specification:Tangerine;letter-spacing:0px;word-spacing:0px;fill:#000000;fill-opacity:1;stroke:none"
     xml:space="preserve"><tspan
       style="font-style:normal;font-variant:normal;font-weight:bold;font-stretch:normal;font-size:146.66667175px;line-height:1;font-family:Tangerine;-inkscape-font-specification:'Tangerine Bold'"
       id="tspan839"
       y="138.07587"
       x="253.66023"
       sodipodi:role="line">    Lite</tspan><tspan
       id="tspan841"
       style="font-style:normal;font-variant:normal;font-weight:bold;font-stretch:normal;font-size:146.66667175px;line-height:1;font-family:Tangerine;-inkscape-font-specification:'Tangerine Bold'"
       y="284.74255"
       x="253.66023"
       sodipodi:role="line">Dragons</tspan></text>
</svg>
